# xmcd
#
# Track frame offsets: 
#        150
#        18114
#        40424
#        61296
#        77689
#        93910
#        108869
#        131609
#
# Disc length: 1983 seconds
#
# Revision: 0
# Processed by: cddbd v1.5.2PL0 Copyright (c) Steve Scherf et al.
# Submitted via: ExactAudioCopy v1.0b4
#
DISCID=5807bd08
DTITLE=Climax Blues Band - Gold Plated
DYEAR=1976
DGENRE=Blues Rock
TTITLE0=Together And Free
TTITLE1=Mighty Fire
TTITLE2=Chasing Chase
TTITLE3=Berlin Blues
TTITLE4=Couldn't Get It Right
TTITLE5=Rollin' Home
TTITLE6=Sav'ry Grave
TTITLE7=Extra
EXTD=
EXTT0=
EXTT1=
EXTT2=
EXTT3=
EXTT4=
EXTT5=
EXTT6=
EXTT7=
PLAYORDER=
